<svg xmlns="http://www.w3.org/2000/svg" viewBox="0 0 100 100" width="100" height="100">
   <defs>
    <linearGradient id="rm-gradient-sq" x1="0%" y1="0%" x2="100%" y2="0%">
      <stop offset="0%" style="stop-color:#005bea;stop-opacity:1" />
      <stop offset="100%" style="stop-color:#00c6fb;stop-opacity:1" />
    </linearGradient>
  </defs>
  
  <g transform="translate(5, 15) scale(0.9)">
    <circle cx="10" cy="10" r="7" fill="#005bea" />
    <circle cx="10" cy="35" r="7" fill="#0075ef" />
    <circle cx="10" cy="60" r="7" fill="#008ff4" />

    <path d="M17,10 C30,10 40,18 55,18 L60,18" stroke="url(#rm-gradient-sq)" stroke-width="4" fill="none" stroke-linecap="round"/>
    <path d="M17,35 C30,35 40,40 55,40 L70,40" stroke="url(#rm-gradient-sq)" stroke-width="4" fill="none" stroke-linecap="round"/>
    <path d="M17,60 C30,60 40,52 55,52 L65,52" stroke="url(#rm-gradient-sq)" stroke-width="4" fill="none" stroke-linecap="round"/>

    <rect x="60" y="2" width="35" height="22" rx="5" fill="url(#rm-gradient-sq)" opacity="0.9"/>
    <rect x="70" y="27" width="25" height="22" rx="5" fill="url(#rm-gradient-sq)" opacity="0.8"/>
    <rect x="65" y="52" width="30" height="22" rx="5" fill="url(#rm-gradient-sq)" opacity="0.9"/>
  </g>
</svg>